<svg width="128" height="128" viewBox="0 0 128 128" fill="none" xmlns="http://www.w3.org/2000/svg">
<path d="M0 28C0 12.536 12.536 0 28 0H100C115.464 0 128 12.536 128 28V100C128 115.464 115.464 128 100 128H28C12.536 128 0 115.464 0 100V28Z" fill="#007AFF"/>
<path d="M72.256 81.816L69.056 77.336C68.4587 76.4827 67.648 75.5867 66.624 74.648C65.6 73.7093 64.6187 72.856 63.68 72.088C63.2533 71.832 62.8267 71.448 62.4 70.936C62.0587 70.3387 61.6747 69.7413 61.248 69.144C60.8213 68.5467 60.352 67.992 59.84 67.48C59.4133 66.8827 58.944 66.4987 58.432 66.328C58.2613 66.328 58.048 66.328 57.792 66.328C57.3653 66.328 57.0667 66.1573 56.896 65.816C56.8107 65.4747 56.6827 65.048 56.512 64.536C56.4267 63.9387 56.256 63.3413 56 62.744C55.744 62.0613 55.2747 61.3787 54.592 60.696L52.8 57.496H51.264C51.0933 58.6053 51.008 59.6293 51.008 60.568C51.008 61.4213 51.008 62.2747 51.008 63.128V66.2C51.008 67.48 50.9653 68.8027 50.88 70.168C50.88 71.5333 50.752 73.0693 50.496 74.776C50.496 75.2027 50.3253 76.2267 49.984 77.848C49.728 79.384 49.3867 81.0907 48.96 82.968C48.5333 84.76 48.1493 86.5947 47.808 88.472C47.4667 90.264 47.296 91.6293 47.296 92.568L46.528 93.208H44.352L37.312 91.544C36.8 91.3733 36.4587 90.52 36.288 88.984C36.1173 87.3627 36.032 85.528 36.032 83.48C36.032 81.5173 36.0747 79.5973 36.16 77.72C36.2453 75.7573 36.288 74.392 36.288 73.624L37.184 60.696L35.776 59.032V40.088L38.336 37.528L47.04 39.064L54.72 37.784L62.528 51.608L62.784 52.632L67.264 59.16L74.304 66.456L74.56 67.224H77.632V37.784L77.76 36.888H91.968L93.248 42.264L94.016 47.128C93.1627 48.408 92.6933 49.3467 92.608 49.944C92.5227 50.456 92.48 50.7973 92.48 50.968L91.072 53.528C91.4133 56.0027 91.6693 58.0507 91.84 59.672C92.0107 61.208 92.096 62.7013 92.096 64.152C92.096 66.3707 91.84 69.9547 91.328 74.904C90.9013 79.768 90.688 85.3573 90.688 91.672L89.792 92.568H87.744L80.448 90.776C79.5947 90.4347 79.168 90.3067 79.168 90.392V89.88C79.168 89.7947 79.168 89.624 79.168 89.368C79.168 89.0267 79.168 88.6853 79.168 88.344C78.8267 88.1733 78.2293 87.4053 77.376 86.04C76.608 84.6747 75.4133 83.4373 73.792 82.328H73.408C73.3227 82.1573 73.2373 82.072 73.152 82.072C73.152 82.072 73.1093 82.0293 73.024 81.944C72.9387 81.944 72.896 81.9013 72.896 81.816H72.256Z" fill="white"/>
</svg>
